<!-- Generator: Adobe Illustrator 25.2.1, SVG Export Plug-In  -->
<svg version="1.1" xmlns="http://www.w3.org/2000/svg" xmlns:xlink="http://www.w3.org/1999/xlink" x="0px" y="0px" width="50.84px"
	 height="243.48px" viewBox="0 0 50.84 243.48" style="overflow:visible;enable-background:new 0 0 50.84 243.48;"
	 xml:space="preserve">
<style type="text/css">
	.st0{fill:#FFFFFF;}
</style>
<defs>
</defs>
<g>
	<path class="st0" d="M40.91,0h-3.03v8.06h-4.23V1.2h-3.03v6.87h-4.08V0h-3.03v11.46h17.4V0z M26.54,13.63h-3.03v12.48h3.03v-4.55
		h14.37v-3.4H26.54V13.63z M34.95,28.17H23.51v3.37h11.31c2,0,3.2,1.2,3.2,3.03c0,1.83-1.2,3.01-3.2,3.01H23.51v3.4h11.43
		c3.69,0,6.11-2.83,6.11-6.4S38.64,28.17,34.95,28.17 M26.54,43.01h-3.03V55.5h3.03v-4.54h14.37v-3.4H26.54V43.01z M40.91,57.65
		h-17.4v3.4h17.4V57.65z M26.54,63.21h-3.03V75.7h3.03v-4.54h14.37v-3.4H26.54V63.21z M35.78,77.23c-1.54,0-2.81,0.42-3.69,1.34
		c-0.68,0.73-1.12,1.74-1.34,3.32l-0.29,2.05c-0.1,0.71-0.37,1.27-0.68,1.61c-0.34,0.37-0.81,0.51-1.25,0.51
		c-1.2,0-2.2-0.88-2.2-2.69c0-1.15,0.15-2.47,1.2-3.57l-2.13-2.15c-1.44,1.49-2.03,3.23-2.03,5.62c0,3.76,2.17,6.06,5.28,6.06
		c1.47,0,2.59-0.42,3.42-1.25c0.76-0.78,1.22-1.88,1.44-3.37l0.29-2.1c0.12-0.81,0.29-1.2,0.61-1.54c0.34-0.37,0.85-0.54,1.47-0.54
		c1.39,0,2.15,1.08,2.15,3.08c0,1.61-0.37,3.1-1.47,4.2l2.2,2.2c1.73-1.71,2.3-3.71,2.3-6.35C41.06,80.04,39.15,77.23,35.78,77.23
		 M40.91,92.08h-17.4v3.4h10.65l-10.65,6.89v3.03h17.4V102H30.23l10.68-6.89V92.08z M40.91,108.67h-17.4v3.4h17.4V108.67z"/>
	<path class="st0" d="M13.06,29.28c-1.54,0-2.81,0.42-3.69,1.34c-0.68,0.73-1.12,1.74-1.34,3.32L7.73,36
		c-0.1,0.71-0.37,1.27-0.68,1.61c-0.34,0.37-0.81,0.51-1.25,0.51c-1.2,0-2.2-0.88-2.2-2.69c0-1.15,0.15-2.47,1.2-3.57l-2.12-2.15
		c-1.44,1.49-2.03,3.22-2.03,5.62c0,3.76,2.17,6.06,5.28,6.06c1.47,0,2.59-0.42,3.42-1.25c0.76-0.78,1.22-1.88,1.44-3.37l0.29-2.1
		c0.12-0.81,0.29-1.2,0.61-1.54c0.34-0.37,0.86-0.54,1.47-0.54c1.39,0,2.15,1.08,2.15,3.08c0,1.61-0.37,3.1-1.47,4.2l2.2,2.2
		c1.74-1.71,2.3-3.71,2.3-6.35C18.34,32.09,16.43,29.28,13.06,29.28 M13.01,46.98c1.17,0,2.15,0.73,2.15,2.27v3.54h-4.28v-3.54
		C10.89,47.72,11.84,46.98,13.01,46.98 M5.83,47.23c1.2,0,2,0.81,2,2.25v3.32H3.82v-3.32C3.82,48.03,4.63,47.23,5.83,47.23
		 M13.18,43.59c-2.32,0-3.42,1.34-3.91,2.39c-0.41-0.88-1.66-2.15-3.59-2.15c-2.98,0-4.89,1.98-4.89,5.38v6.99h17.4v-7.28
		C18.19,45.81,16.43,43.59,13.18,43.59 M9.49,62.39c3.35,0,4.15,0.19,4.89,0.85c0.56,0.49,0.93,1.25,0.93,2.17
		c0,0.93-0.37,1.71-0.93,2.2c-0.73,0.66-1.54,0.83-4.89,0.83s-4.15-0.17-4.89-0.83c-0.56-0.49-0.93-1.27-0.93-2.2
		c0-0.93,0.37-1.69,0.93-2.17C5.34,62.59,6.15,62.39,9.49,62.39 M9.49,58.99c-3.01,0-5.18-0.03-6.94,1.73
		c-1.22,1.22-1.9,2.71-1.9,4.69c0,1.98,0.68,3.49,1.9,4.72c1.76,1.76,3.93,1.71,6.94,1.71s5.18,0.05,6.94-1.71
		c1.22-1.22,1.91-2.74,1.91-4.72c0-1.98-0.68-3.47-1.91-4.69C14.67,58.97,12.5,58.99,9.49,58.99 M12.84,73.8v3.45
		c1.39,0.34,2.47,1.22,2.47,2.93c0,0.93-0.34,1.69-0.9,2.17c-0.73,0.66-1.56,0.86-4.91,0.86s-4.18-0.2-4.91-0.86
		c-0.56-0.49-0.9-1.25-0.9-2.17c0-1.71,1.08-2.59,2.47-2.93V73.8c-3.64,0.61-5.5,3.15-5.5,6.4c0,1.91,0.68,3.47,1.9,4.69
		c1.76,1.76,3.93,1.71,6.94,1.71s5.18,0.05,6.94-1.71c1.22-1.22,1.91-2.78,1.91-4.69C18.34,76.98,16.48,74.41,12.84,73.8
		 M12.25,92.84v4.32l-6.33-2.2L12.25,92.84z M18.19,87.37l-17.4,6.35v2.66l17.4,6.33v-3.54l-3.08-1.05v-6.18l3.08-1.03V87.37z
		 M12.47,104.4H0.79v3.4h11.53c2,0,2.98,1.07,2.98,2.74c0,1.12-0.41,1.66-0.98,2.22l2.22,2.25c1.3-1.29,1.78-2.59,1.78-4.47
		C18.34,107.31,16.31,104.4,12.47,104.4"/>
	<path class="st0" d="M27.7,151.75v-8.36h-1.63v3.42h-2.83v-3.42h-1.63v8.36h1.63v-3.5h2.83v3.5H27.7z M20.21,149.18h-1.66
		c-0.16,0.67-0.59,1.19-1.41,1.19c-0.45,0-0.81-0.16-1.05-0.43c-0.32-0.35-0.41-0.75-0.41-2.36s0.09-2.01,0.41-2.36
		c0.24-0.27,0.6-0.43,1.05-0.43c0.82,0,1.25,0.52,1.41,1.19h1.66c-0.29-1.75-1.51-2.64-3.08-2.64c-0.92,0-1.67,0.33-2.25,0.92
		c-0.85,0.85-0.82,1.89-0.82,3.34c0,1.45-0.02,2.49,0.82,3.34c0.59,0.59,1.34,0.91,2.25,0.91
		C18.69,151.82,19.92,150.93,20.21,149.18 M12.86,151.75v-1.45H8.98v-2.03h3.3v-1.46h-3.3v-1.96h3.88v-1.46H7.35v8.36H12.86z
		 M6,144.84v-1.46H0v1.46h2.18v6.91h1.63v-6.91H6z"/>
	<path class="st0" d="M50.84,140.47v-1.46h-3.79v-6.91h-1.63v8.36H50.84z M44.06,140.47v-1.46h-3.79v-6.91h-1.63v8.36H44.06z
		 M37.07,140.47v-1.46h-3.88v-2.03h3.3v-1.45h-3.3v-1.96h3.88v-1.46h-5.51v8.36H37.07z M29.66,140.47v-8.36h-1.63v5.12l-3.31-5.12
		h-1.45v8.36h1.63v-5.13l3.31,5.13H29.66z M19.92,134.67c0,0.65-0.47,1.1-1.19,1.1H17.2v-2.21h1.54
		C19.45,133.57,19.92,134.03,19.92,134.67 M21.89,140.47l-1.87-3.61c0.81-0.29,1.53-1.02,1.53-2.2c0-1.4-1.01-2.56-2.71-2.56h-3.28
		v8.36h1.63v-3.34h1.18l1.63,3.34H21.89z M12.28,136.29c0,1.61-0.09,2-0.41,2.35c-0.23,0.27-0.6,0.45-1.05,0.45
		c-0.45,0-0.82-0.18-1.06-0.45c-0.32-0.35-0.4-0.74-0.4-2.35c0-1.61,0.08-2,0.4-2.35c0.23-0.27,0.61-0.45,1.06-0.45
		c0.45,0,0.81,0.18,1.05,0.45C12.19,134.3,12.28,134.68,12.28,136.29 M13.91,136.29c0-1.45,0.01-2.49-0.83-3.34
		c-0.59-0.59-1.3-0.92-2.26-0.92s-1.68,0.33-2.27,0.92c-0.84,0.85-0.82,1.89-0.82,3.34c0,1.45-0.02,2.49,0.82,3.34
		c0.59,0.59,1.32,0.92,2.27,0.92s1.67-0.33,2.26-0.92C13.93,138.78,13.91,137.74,13.91,136.29 M6.49,137.9H4.84
		c-0.16,0.67-0.59,1.19-1.41,1.19c-0.45,0-0.81-0.16-1.05-0.43c-0.32-0.35-0.41-0.75-0.41-2.36c0-1.61,0.09-2.01,0.41-2.36
		c0.24-0.27,0.6-0.43,1.05-0.43c0.82,0,1.24,0.52,1.41,1.19h1.66c-0.29-1.75-1.51-2.64-3.08-2.64c-0.92,0-1.67,0.33-2.25,0.92
		c-0.85,0.85-0.82,1.89-0.82,3.34c0,1.45-0.02,2.49,0.82,3.34c0.59,0.59,1.34,0.92,2.25,0.92C4.97,140.54,6.2,139.65,6.49,137.9"/>
	<g>
		<rect x="0.52" y="118.97" class="st0" width="40.6" height="0.47"/>
	</g>
</g>
<path class="st0" d="M2.53,124.54l0.98,2.76H1.55L2.53,124.54z M2.37,124.07l-1.72,4.68h0.38l0.41-1.14h2.18l0.41,1.14h0.38
	l-1.72-4.68H2.37z M4.63,124.07v0.32h1.39v4.37h0.35v-4.37h1.4v-0.32H4.63z"/>
<g>
	<path class="st0" d="M39.36,180.5v-5.6h0.97c0.1,0.78,0.15,1.57,0.15,2.37c0,1.1-0.09,2.18-0.27,3.23H39.36z M38.31,186.15
		l-0.93-0.46l-2.1-0.34l-0.01,0.02l2.65,1.5c-0.21,0.37-0.44,0.73-0.68,1.08l-3.46-2.41c0.73-1.11,1.33-2.32,1.75-3.61l4.21,0.62
		C39.38,183.81,38.9,185.01,38.31,186.15 M34.54,191.17l-2.9-3.06c0.21-0.2,0.41-0.4,0.6-0.61l3.2,2.75
		C35.14,190.57,34.85,190.87,34.54,191.17 M7.07,181.92c0.41,1.26,0.98,2.44,1.69,3.53l-3.54,2.47c-0.23-0.35-0.46-0.71-0.67-1.08
		l2.57-1.46l-0.02-0.02l-2.1,0.34l-0.85,0.42c-0.59-1.13-1.06-2.32-1.42-3.57L7.07,181.92z M2.01,177.27c0-0.8,0.05-1.59,0.15-2.37
		h0.97v5.6H2.28C2.11,179.45,2.01,178.37,2.01,177.27 M5.1,180.5H3.95v-5.6H5.1V180.5z M21.57,192.25c0.29-0.01,0.57-0.02,0.85-0.04
		l0.43,4.23c-0.42,0.04-0.85,0.05-1.28,0.06V192.25z M19.91,192.19c0.28,0.03,0.56,0.05,0.84,0.06v4.25
		c-0.43-0.01-0.86-0.03-1.28-0.07L19.91,192.19z M5.7,188.59l3.53-2.46c0.16,0.23,0.34,0.44,0.51,0.66l-3.26,2.81
		C6.21,189.27,5.95,188.94,5.7,188.59 M7.02,190.21l3.26-2.8c0.19,0.21,0.39,0.4,0.59,0.6l-2.96,3.12
		C7.61,190.84,7.31,190.53,7.02,190.21 M17.95,193.2l-1.11,1.81l-0.23,0.93c-2.35-0.58-4.54-1.6-6.46-2.96l0.5-0.73l0.65-2.02
		l-0.01-0.02l-1.79,2.29c-0.33-0.26-0.66-0.53-0.98-0.81l2.96-3.12c2.1,1.83,4.72,3.09,7.61,3.51l-0.43,4.24
		c-0.42-0.06-0.84-0.13-1.25-0.21l0.57-2.92L17.95,193.2z M31.75,192.23l0.54,0.79c-1.95,1.37-4.16,2.38-6.55,2.95l-0.25-0.96
		l-1.11-1.81l-0.02,0l0.59,2.95c-0.42,0.08-0.83,0.15-1.26,0.21l-0.43-4.23c2.95-0.38,5.63-1.62,7.78-3.46l2.91,3.06
		c-0.32,0.28-0.65,0.55-0.98,0.81l-1.83-2.34l-0.01,0.02L31.75,192.23z M35.97,189.63l-3.19-2.75c0.18-0.22,0.36-0.44,0.53-0.67
		l3.46,2.41C36.51,188.97,36.25,189.31,35.97,189.63 M30.29,181.16l4.38,0.65c-1.88,5.58-7.16,9.6-13.37,9.6
		c-6.22,0-11.5-4.02-13.38-9.61l4.3-0.64l0.3-0.66h-6.6v-5.6h8.98l-0.31-0.68h-4.05c1.44-4.52,5.67-7.8,10.68-7.8
		c5,0,9.24,3.28,10.68,7.8h-3.53l-0.31,0.68h8.5v5.6H30L30.29,181.16z M38.53,180.5h-1.16v-5.6h1.16V180.5z M21.24,158.04
		c9.58,0,17.53,7.01,18.99,16.18h-7.46c-1.47-4.99-6.09-8.64-11.56-8.64c-5.47,0-10.09,3.65-11.56,8.64H2.25
		C3.72,165.05,11.66,158.04,21.24,158.04 M21.24,157.03C10.06,157.03,1,166.09,1,177.27c0,11.18,9.06,20.24,20.24,20.24
		s20.24-9.06,20.24-20.24C41.49,166.09,32.43,157.03,21.24,157.03"/>
	<path class="st0" d="M8.98,171.27l-3.29-1.6l0.43-0.88c0.03-0.07,0-0.14-0.06-0.17l-0.67-0.33c-0.06-0.03-0.14-0.01-0.17,0.06
		l-1.33,2.74c-0.03,0.07,0,0.14,0.06,0.17l0.67,0.33c0.06,0.03,0.14,0.01,0.17-0.06l0.43-0.88l3.29,1.6c0.06,0.03,0.14,0,0.17-0.06
		l0.36-0.74C9.07,171.39,9.04,171.3,8.98,171.27"/>
	<path class="st0" d="M9.85,169.73c0.05,0.04,0.13,0.04,0.18-0.01l1.86-2.15c0.05-0.06,0.04-0.14-0.01-0.18l-0.57-0.49
		c-0.05-0.04-0.13-0.04-0.18,0.01l-1.24,1.44l-0.7-0.6l1.02-1.18c0.05-0.05,0.04-0.13-0.01-0.18l-0.56-0.49
		c-0.05-0.04-0.14-0.04-0.18,0.01l-1.02,1.18l-0.64-0.56l1.24-1.44c0.05-0.06,0.04-0.14-0.01-0.18l-0.57-0.49
		c-0.05-0.04-0.13-0.04-0.18,0.01l-1.86,2.15c-0.05,0.06-0.04,0.14,0.01,0.18L9.85,169.73z"/>
	<path class="st0" d="M14.45,165.87c0.52-0.32,0.91-0.81,1.06-1.44c0.02-0.07-0.03-0.14-0.09-0.16l-0.75-0.2
		c-0.06-0.02-0.14,0.03-0.15,0.09c-0.1,0.31-0.33,0.59-0.61,0.76c-0.66,0.41-1.48,0.18-1.88-0.47c-0.41-0.65-0.26-1.5,0.4-1.91
		c0.29-0.18,0.64-0.25,0.97-0.19c0.07,0.02,0.13-0.02,0.15-0.09l0.16-0.75c0.02-0.07-0.03-0.15-0.11-0.16
		c-0.62-0.12-1.16-0.03-1.75,0.33c-1.16,0.72-1.52,2.24-0.8,3.41C11.77,166.24,13.28,166.59,14.45,165.87"/>
	<path class="st0" d="M16.6,164.65l0.8-0.16c0.07-0.01,0.12-0.09,0.1-0.15l-0.36-1.77l1.92-0.39l0.36,1.77
		c0.01,0.07,0.08,0.12,0.15,0.1l0.8-0.16c0.07-0.01,0.11-0.09,0.1-0.15l-0.91-4.45c-0.01-0.07-0.09-0.12-0.15-0.1l-0.8,0.16
		c-0.07,0.01-0.11,0.09-0.1,0.15l0.34,1.69l-1.92,0.39l-0.34-1.69c-0.01-0.07-0.08-0.12-0.15-0.1l-0.8,0.16
		c-0.07,0.01-0.12,0.09-0.1,0.15l0.91,4.45C16.46,164.61,16.54,164.66,16.6,164.65"/>
	<path class="st0" d="M21.66,163.86l0.8,0.14c0.08,0.01,0.14-0.04,0.15-0.11l0.45-2.52l0.01,0l2.19,3.15
		c0.01,0.02,0.06,0.05,0.08,0.05l0.11,0.02c0.07,0.01,0.14-0.03,0.15-0.1l0.8-4.54c0.01-0.07-0.04-0.14-0.11-0.15l-0.81-0.14
		c-0.07-0.01-0.14,0.04-0.15,0.11l-0.42,2.4l-0.01,0l-2.24-3.07l-0.17-0.03c-0.07-0.01-0.14,0.03-0.15,0.1l-0.8,4.55
		C21.54,163.78,21.59,163.85,21.66,163.86"/>
	<path class="st0" d="M26.7,165.15l0.74,0.36c0.06,0.03,0.14,0,0.17-0.06l1.97-4.08c0.03-0.06,0-0.14-0.06-0.17l-0.74-0.36
		c-0.06-0.03-0.14,0-0.17,0.06l-1.97,4.09C26.61,165.04,26.64,165.12,26.7,165.15"/>
	<path class="st0" d="M30.75,164.71c0.5-0.57,1.37-0.62,1.93-0.13c0.56,0.5,0.61,1.38,0.12,1.94c-0.49,0.56-1.37,0.61-1.93,0.12
		C30.31,166.14,30.26,165.27,30.75,164.71 M30.15,167.46c1.03,0.91,2.57,0.82,3.48-0.21c0.91-1.03,0.82-2.58-0.21-3.49
		c-1.03-0.91-2.57-0.8-3.48,0.23C29.02,165.01,29.12,166.55,30.15,167.46"/>
	<path class="st0" d="M32.47,169.75l0.38,0.72c0.03,0.07,0.11,0.09,0.18,0.06l2.27-1.18l0,0.01l-1.16,3.66
		c-0.01,0.02,0,0.08,0.01,0.1l0.05,0.1c0.03,0.06,0.11,0.09,0.17,0.06l4.09-2.13c0.06-0.03,0.09-0.12,0.06-0.18l-0.38-0.73
		c-0.03-0.07-0.11-0.09-0.18-0.06l-2.16,1.12l0-0.01l1.07-3.64l-0.08-0.15c-0.03-0.06-0.11-0.09-0.17-0.06l-4.09,2.14
		C32.46,169.6,32.44,169.69,32.47,169.75"/>
	<path class="st0" d="M15.91,170.56c0.5-0.93,1.43-1.13,2.12-1.13c0.44,0,1.08,0.15,1.83,0.33c0.8,0.19,1.63,0.39,2.28,0.39
		c0.85,0,2.02-0.24,2.73-0.43c-0.04,0.07-0.19,0.14-0.29,0.29c-0.04,0.06-0.03,0.1-0.07,0.19l-0.04,0.08c0,0.01-0.04,0.03-0.11,0.06
		l-0.06,0.03c-0.16,0.08-0.36,0.18-0.52,0.4c-0.07,0.1-0.11,0.2-0.15,0.3l-0.05,0.12c-0.05,0.09-0.07,0.1-0.16,0.16
		c-0.16,0.09-0.56,0.16-0.97,0.16h-0.03c-0.33,0-0.88-0.12-1.27-0.26c-0.23-0.08-0.42-0.16-0.62-0.25l-0.07-0.02
		c-0.56-0.24-1.05-0.45-1.93-0.48h0c-0.5,0-0.98,0.35-1.2,0.86l-1.64,0C15.72,171.04,15.81,170.75,15.91,170.56 M18.16,172.01
		c0,0-0.24-0.46-0.22-0.5c0.08-0.24,0.37-0.35,0.61-0.35c0.73,0.03,1.12,0.19,1.71,0.43l0.13,0.05c0.17,0.07,0.36,0.15,0.57,0.23
		c0.46,0.17,1.07,0.29,1.47,0.29h0.03c0.19,0,0.86-0.01,1.24-0.23c0.18-0.1,0.29-0.2,0.43-0.45c0.01-0.02,0.02-0.04,0.03-0.07
		l0.03-0.07l0.01-0.02c0.02-0.06,0.05-0.12,0.07-0.16c0.07-0.1,0.16-0.14,0.34-0.23c0.06-0.02,0.21-0.1,0.31-0.21
		c0.04-0.05,0.08-0.09,0.12-0.18l0.05-0.13c0.03-0.07,0.05-0.11,0.08-0.21c0.05-0.15,0.11-0.2,0.19-0.24
		c0.12-0.07,0.24-0.19,0.35-0.32c0.08-0.11,0.14-0.25,0.19-0.45l0-0.02c0,0,0.12-0.3,0.04-0.43c-0.08-0.13-0.43,0.06-0.43,0.06
		l-0.05,0.03c-0.04,0.02-0.08,0.04-0.12,0.05c-0.54,0.25-1.98,0.61-3.17,0.61c-0.58,0-1.35-0.19-2.16-0.38l-0.04-0.01
		c-0.72-0.17-1.39-0.33-1.93-0.33c-0.68,0-1.93,0.19-2.61,1.45c-0.22,0.43-0.3,0.99-0.32,1.31l0.28,0.48L18.16,172.01z"/>
	<path class="st0" d="M9.08,175.87H8.5l-0.92,0.61c-0.02,0.02-0.04,0.06-0.04,0.08v0.34c0,0.05,0.05,0.1,0.11,0.1h0.61v2.42
		c0,0.05,0.05,0.1,0.12,0.1h0.7c0.06,0,0.11-0.05,0.11-0.1v-3.45C9.2,175.92,9.14,175.87,9.08,175.87"/>
	<path class="st0" d="M11.65,177.56c-0.34,0-0.61-0.24-0.61-0.52c0-0.28,0.27-0.51,0.61-0.51c0.33,0,0.61,0.24,0.61,0.51
		C12.26,177.32,11.99,177.56,11.65,177.56 M10.61,177.22v-0.05c0,0.01,0,0.01,0,0.02C10.61,177.2,10.61,177.21,10.61,177.22
		 M11.64,175.78c-0.79,0-1.44,0.55-1.44,1.23c0,0.79,0.66,1.16,1.26,1.16c0.17,0,0.44-0.05,0.6-0.11c-0.13,0.55-0.97,0.8-1.27,0.88
		c-0.13,0.03-0.15,0.09-0.12,0.15l0.18,0.41c0.03,0.07,0.1,0.11,0.2,0.08c0.58-0.14,2.12-0.78,2.12-2.36
		C13.16,176.41,12.62,175.78,11.64,175.78"/>
	<path class="st0" d="M31.43,175.87h-0.58l-0.92,0.61c-0.02,0.02-0.04,0.06-0.04,0.08v0.34c0,0.05,0.05,0.1,0.11,0.1h0.61v2.42
		c0,0.05,0.05,0.1,0.12,0.1h0.7c0.06,0,0.11-0.05,0.11-0.1v-3.45C31.55,175.92,31.5,175.87,31.43,175.87"/>
	<path class="st0" d="M35.15,176.9c0-0.6-0.53-1.08-1.43-1.08c-0.75,0-1.26,0.53-1.26,0.53c-0.04,0.04-0.04,0.11,0.01,0.14
		l0.38,0.33c0.05,0.04,0.13,0.04,0.18,0c0.12-0.11,0.35-0.27,0.61-0.27c0.35,0,0.56,0.18,0.56,0.39c0,0.15-0.08,0.3-0.16,0.41
		c-0.37,0.48-1.31,1.56-1.67,1.97v0.11c0,0.05,0.05,0.1,0.12,0.1H35c0.06,0,0.12-0.05,0.12-0.1v-0.48c0-0.05-0.06-0.1-0.12-0.1
		h-1.11c0.3-0.35,0.81-0.93,1.02-1.23C35.05,177.34,35.15,177.18,35.15,176.9"/>
</g>
<path class="st0" d="M22.86,181.14l-1.2,2.64l-1.28-2.64l-3.81-7.87h1.38l3.67,7.6l2.95-6.4l0.05-0.11l-3.98-0.01l-0.54-1.11l6.34,0
	L22.86,181.14z M20.26,174.95l3.38,0.01l-2.04,4.5l-3.26-6.74l-0.02-0.04H15.6l4.11,8.47l1.89,3.9l0.08,0.15l1.84-4.05l0.03-0.06
	l3.75-8.27l-0.36-0.17h-0.06h-7.75L20.26,174.95z"/>
<g>
	<path class="st0" d="M28.54,182.43l-1.37,0.22l-0.03,0.25c-0.03,0.33-0.1,0.67-0.2,1l-0.07,0.24l1.18,0.73l-0.1,0.24l-1.35-0.33
		l-0.12,0.22c-0.16,0.3-0.35,0.58-0.57,0.85l-0.16,0.19l0.81,1.13l-0.18,0.18l-1.13-0.82l-0.19,0.16c-0.27,0.21-0.55,0.41-0.85,0.57
		l-0.22,0.12l0.32,1.36l-0.24,0.1l-0.73-1.19l-0.24,0.07c-0.33,0.1-0.66,0.16-1,0.2l-0.25,0.03l-0.22,1.38h-0.25l-0.22-1.38
		l-0.25-0.03c-0.33-0.04-0.67-0.1-1-0.2l-0.24-0.07l-0.74,1.18l-0.23-0.09l0.32-1.36l-0.22-0.12c-0.3-0.16-0.58-0.35-0.85-0.57
		l-0.19-0.15l-1.13,0.82l-0.18-0.18l0.82-1.13l-0.16-0.19c-0.21-0.27-0.41-0.55-0.57-0.84l-0.12-0.22l-1.36,0.32l-0.1-0.24
		l1.19-0.73l-0.07-0.24c-0.1-0.33-0.16-0.66-0.2-1l-0.03-0.25l-1.38-0.22v-0.26l1.38-0.22l0.03-0.25c0.02-0.19,0.05-0.38,0.09-0.56
		c0.03-0.15,0.07-0.29,0.11-0.44l0.07-0.24l-1.19-0.73l0.1-0.24l1.35,0.32l0.12-0.22c0.08-0.14,0.16-0.28,0.25-0.42l0.07-0.09
		l0.7,1.45c-0.02,0.05-0.05,0.1-0.07,0.15c-0.06,0.15-0.11,0.29-0.15,0.44c-0.1,0.37-0.16,0.76-0.16,1.15
		c0,1.05,0.38,2.05,1.07,2.84c0.68,0.77,1.62,1.28,2.64,1.41c0.05,0.01,0.26,0.04,0.59,0.04h0.01c0.33,0,0.53-0.03,0.59-0.05
		c1.01-0.15,1.94-0.65,2.62-1.42c0.69-0.78,1.06-1.79,1.06-2.83c0-0.39-0.08-0.87-0.16-1.15c-0.08-0.27-0.18-0.46-0.2-0.49
		c0,0,0,0,0-0.01l0.72-1.5c0.1,0.15,0.2,0.3,0.28,0.46l0.12,0.22l1.35-0.32l0.1,0.24l-1.18,0.73l0.07,0.24
		c0.04,0.15,0.08,0.29,0.11,0.44c0.04,0.19,0.07,0.38,0.09,0.56l0.03,0.25l1.37,0.22V182.43z M27.71,181.14
		c-0.02-0.13-0.05-0.26-0.08-0.38l1.24-0.76l-0.52-1.25l-1.41,0.33c-0.1-0.17-0.21-0.33-0.33-0.49c-0.01-0.01-0.05-0.06-0.08-0.1
		l0.57-1.19l-0.59-0.37l-1.76,3.72l-0.09,0.22c0,0,0.12,0.1,0.23,0.24c0.13,0.18,0.19,0.37,0.19,0.37h0
		c0.02,0.07,0.05,0.14,0.05,0.18c0.04,0.21,0.06,0.42,0.06,0.64c0,0.89-0.32,1.74-0.91,2.4c-0.58,0.66-1.37,1.09-2.23,1.21l-0.03,0
		c0,0-0.16,0.04-0.46,0.04c-0.31,0-0.49-0.03-0.49-0.03l-0.02,0c-1.8-0.24-3.16-1.79-3.16-3.62c0-0.33,0.02-0.54,0.13-0.96
		c0.12-0.48,0.38-0.69,0.38-0.69l-1.76-3.72l-0.59,0.37l0.54,1.12c-0.13,0.18-0.34,0.49-0.44,0.66l-1.41-0.34l-0.52,1.25l1.24,0.77
		c-0.03,0.12-0.06,0.25-0.08,0.38c-0.02,0.08-0.03,0.16-0.04,0.25l-1.44,0.23l0,1.36l1.44,0.24c0.03,0.21,0.07,0.42,0.12,0.63
		l-1.24,0.76l0.52,1.25l1.42-0.33c0.11,0.18,0.23,0.36,0.36,0.53l-0.86,1.18l0.96,0.96l1.18-0.85c0.17,0.13,0.35,0.25,0.53,0.36
		l-0.34,1.42l1.25,0.52l0.77-1.24c0.21,0.05,0.42,0.09,0.63,0.12l0.23,1.44h1.35l0.23-1.44c0.21-0.03,0.42-0.07,0.63-0.12l0.76,1.24
		l1.25-0.52l-0.33-1.41c0.18-0.11,0.36-0.23,0.53-0.36l1.18,0.86l0.96-0.96l-0.85-1.18c0.13-0.17,0.25-0.35,0.36-0.53l1.41,0.34
		l0.52-1.25l-1.24-0.77c0.05-0.21,0.1-0.42,0.13-0.63l1.43-0.23v-1.35l-1.43-0.24C27.74,181.31,27.72,181.22,27.71,181.14"/>
	<path class="st0" d="M41.55,223.2c0-11.18-9.09-20.27-20.27-20.27S1.01,212.03,1.01,223.2c0,11.18,9.09,20.27,20.27,20.27
		S41.55,234.38,41.55,223.2 M41.02,223.2c0,10.89-8.86,19.74-19.74,19.74c-10.89,0-19.74-8.85-19.74-19.74
		c0-10.89,8.86-19.74,19.74-19.74C32.16,203.46,41.02,212.32,41.02,223.2 M40.03,222.88l-1.07-0.53l1.01-0.63l-0.05-0.87L38.19,222
		l-1.15,0.07l0.04,0.74l1.15-0.07l1.84,0.94L40.03,222.88z M39.13,219.98l0.61-0.15l-0.55-2.23l-0.62,0.15l0.19,0.75l-2.24,0.55
		l0.18,0.73l2.24-0.55L39.13,219.98z M36.03,217.53l2.72-1.11l-0.28-0.69l-2.72,1.11L36.03,217.53z M37.13,214.65l0.61-0.28
		l-0.02-0.08c-0.04-0.21-0.13-0.42-0.26-0.64c-0.32-0.54-0.85-0.71-1.34-0.42c-0.5,0.3-0.43,0.78-0.38,1.12
		c0.05,0.27,0.06,0.44-0.06,0.51c-0.15,0.09-0.33-0.06-0.41-0.2c-0.09-0.16-0.15-0.35-0.15-0.56l-0.01-0.15l-0.67,0.31l0.05,0.15
		c0.07,0.23,0.11,0.37,0.25,0.61c0.24,0.4,0.56,0.63,0.9,0.63c0.16,0,0.31-0.05,0.47-0.14c0.52-0.31,0.44-0.8,0.38-1.15
		c-0.04-0.25-0.06-0.41,0.04-0.47c0.05-0.03,0.1-0.04,0.15-0.04c0.14,0,0.22,0.13,0.26,0.18c0.09,0.15,0.14,0.32,0.17,0.49
		L37.13,214.65z M35.4,212.12c0.63-0.56,0.13-1.13-0.24-1.56l-0.48-0.55l-2.21,1.94l0.49,0.56l0.85-0.75l0.05,0.05
		c0.11,0.12,0.11,0.18,0.02,0.35l-0.46,0.87l0.54,0.62l0.59-1.17c0.02-0.04,0.06-0.13,0.08-0.24
		C34.87,212.37,35.18,212.32,35.4,212.12 M34.94,211.43c0,0.05-0.03,0.1-0.09,0.15c-0.06,0.05-0.11,0.07-0.16,0.07
		c-0.12,0-0.26-0.13-0.36-0.24l-0.05-0.06l0.4-0.35l0.05,0.06C34.84,211.18,34.95,211.31,34.94,211.43 M33.15,209.46l0.39-0.5
		l-1.42-1.11l-1.81,2.32l1.42,1.11l0.39-0.5l-0.84-0.65l0.35-0.45l0.76,0.59l0.39-0.5l-0.76-0.59l0.29-0.37L33.15,209.46z
		 M28.8,209.26l2.2-2.18l-0.67-0.34l-1.42,1.44l0.31-2l-0.71-0.36l-0.44,3.08L28.8,209.26z M26.43,208.23l0.88-2.81l-0.71-0.23
		l-0.88,2.81L26.43,208.23z M24.71,207.71l0.39-2.92l-0.71-0.1l-0.23,1.72l-0.64-1.84l-0.82-0.11l-0.39,2.92l0.72,0.1l0.23-1.72
		l0.64,1.84L24.71,207.71z M21.28,208.38c-8.17,0-14.82,6.65-14.82,14.82c0,8.18,6.65,14.82,14.82,14.82
		c8.17,0,14.82-6.65,14.82-14.82C36.1,215.03,29.45,208.38,21.28,208.38 M35.59,223.2c0,7.89-6.42,14.31-14.31,14.31
		c-7.89,0-14.31-6.42-14.31-14.31c0-7.89,6.42-14.31,14.31-14.31C29.17,208.89,35.59,215.32,35.59,223.2 M30.94,226l0-12.8l-19.18,0
		v12.58c0,2.92,1.64,5.75,4.74,8.2c2.31,1.82,4.58,2.78,4.68,2.82l0.18,0.07l0.18-0.07c0.1-0.04,2.36-1.02,4.67-2.82
		C29.3,231.56,30.94,228.8,30.94,226 M21.7,224.05c0.04-0.02,0.1-0.04,0.17-0.06c0,0,0.37-0.08,0.78-0.03
		c0.24,0.02,0.47,0.04,0.68,0.07c0.38,0.04,0.71,0.08,1.01,0.08c0.3,0.01,0.56,0.01,0.77,0.01h0.18l0,6.02c-0.17,0-0.4,0.01-0.66,0
		c-0.56-0.01-0.93-0.05-1.3-0.08c-0.37-0.04-0.71-0.07-1.21-0.07c-0.18,0-0.31,0.04-0.43,0.09V224.05z M12.67,221.51h8.26v1.81
		c-0.13-0.03-0.51-0.08-0.93-0.03c-0.25,0.02-0.47,0.05-0.69,0.07c-0.37,0.04-0.69,0.07-0.96,0.08c-0.35,0.01-0.62,0.01-0.85,0.01
		c-0.16,0-0.31,0-0.43,0l-0.33,0.01v1.75h-0.82v0.95h0.82v1.75h-0.82v0.95h0.82v1.95l0.32,0.02c0.02,0,0.46,0.02,1.04,0.01
		c0.58-0.01,0.98-0.05,1.34-0.08c0.37-0.03,0.69-0.06,1.12-0.06c0.17,0,0.23,0.05,0.32,0.17c0.01,0.02,0.03,0.03,0.04,0.05v4.78
		c-2-0.98-8.26-4.49-8.26-9.9V221.51z M20.58,230h-0.02c-0.47,0-0.82,0.03-1.19,0.06c-0.36,0.03-0.74,0.07-1.3,0.08
		c-0.26,0.01-0.48,0-0.66,0v-6.02h0.08c0.23,0,0.51,0,0.87-0.01c0.3-0.01,0.63-0.04,1.01-0.08c0.21-0.02,0.43-0.05,0.69-0.07
		c0.4-0.04,0.77,0.03,0.77,0.03c0.04,0.01,0.06,0.02,0.09,0.03v6.04C20.83,230.03,20.72,230,20.58,230 M30.03,220.6H12.67v-6.49
		l17.36,0V220.6z M30.03,226c0,5.24-6.44,8.79-8.33,9.73v-4.77c0.04-0.04,0.07-0.07,0.09-0.1c0.09-0.11,0.16-0.18,0.34-0.18
		c0.44,0.01,0.77,0.03,1.14,0.06c0.36,0.03,0.76,0.07,1.34,0.08c0.57,0.01,1.02-0.01,1.03-0.01l0.32-0.02v-1.78h0.75v-0.95h-0.75
		v-1.72h0.75v-0.95h-0.76v-1.94l-0.33-0.01c-0.12,0-0.26,0-0.43,0c-0.23,0-0.51,0-0.85-0.01c-0.27-0.01-0.59-0.04-0.96-0.08
		c-0.21-0.02-0.44-0.05-0.68-0.07c-0.51-0.06-0.97,0.04-1,0.04c-0.01,0-0.01,0-0.02,0.01v-1.83h8.33V226z M15.07,215.1
		c0,1.06,0,2.85,0,2.93c0.02,0.37,0.27,0.7,0.74,1.01c0.58,0.39,1.46,0.9,1.49,0.92l0.17,0.1l0.17-0.09
		c0.04-0.02,0.98-0.54,1.57-0.93c0.69-0.46,0.7-0.88,0.7-1.01c0.01-0.08,0-1.64,0-2.93v-0.34h-4.85V215.1z M19.24,216.32h-3.49
		c0-0.3,0-0.6,0-0.88h3.48C19.24,215.72,19.24,216.03,19.24,216.32 M15.75,217h3.49c0,0.53,0,0.94,0,1.01c0,0.17-0.22,0.35-0.4,0.47
		c-0.42,0.28-1.05,0.64-1.35,0.8c-0.28-0.17-0.87-0.52-1.29-0.81c-0.27-0.18-0.43-0.36-0.44-0.49
		C15.75,217.93,15.75,217.53,15.75,217 M23.21,214.95c0,1.33,0,2.93,0,3.01c0.03,0.37,0.28,0.71,0.76,1.03
		c0.6,0.4,1.49,0.93,1.53,0.95l0.17,0.1l0.17-0.09c0.04-0.02,1.01-0.55,1.61-0.95c0.7-0.47,0.72-0.9,0.72-1.04c0.01-0.07,0-1.68,0-3
		l0-0.34h-4.95V214.95z M23.89,217.74l1.72-1.24l1.88,1.25c0,0.1,0,0.17,0,0.2c0,0.18-0.23,0.36-0.41,0.49
		c-0.43,0.29-1.08,0.66-1.39,0.83c-0.29-0.17-0.9-0.54-1.33-0.83c-0.13-0.09-0.44-0.32-0.46-0.52
		C23.89,217.9,23.89,217.83,23.89,217.74 M23.89,215.3h3.59c0,0.53,0.01,1.14,0.01,1.64l-1.89-1.26l-1.7,1.23
		C23.89,216.41,23.89,215.82,23.89,215.3 M20.26,227.27l0.03-0.68c-0.07,0-0.15,0-0.24,0.01l-0.33,0.03
		c-0.2,0.02-0.37,0.04-0.52,0.04l-1,0.03l0.01,0.68l1-0.03c0.17,0,0.36-0.03,0.58-0.05l0.32-0.03
		C20.16,227.27,20.21,227.27,20.26,227.27 M20.26,225.39l0.01-0.68c-0.07,0-0.15,0-0.23,0.01c-0.12,0.01-0.23,0.02-0.34,0.04
		c-0.2,0.02-0.37,0.04-0.52,0.04l-1,0.03l0.02,0.68l1-0.03c0.17,0,0.36-0.02,0.58-0.05c0.1-0.01,0.21-0.02,0.33-0.03
		C20.16,225.39,20.21,225.39,20.26,225.39 M19.16,228.56c-0.32,0.01-0.82,0.03-0.97,0.03l0.01,0.68c0.15,0,0.65-0.02,1-0.03
		c0.17,0,0.36-0.03,0.58-0.05l0.33-0.03c0.05-0.01,0.1-0.01,0.15-0.01l0.01-0.68c-0.07,0-0.15,0-0.23,0.01l-0.34,0.03
		C19.52,228.54,19.35,228.56,19.16,228.56 M22.65,224.73c-0.09-0.01-0.17-0.01-0.25-0.01l0.03,0.68c0.05,0,0.1,0,0.16,0.01
		l0.32,0.03c0.22,0.02,0.41,0.04,0.58,0.05l1,0.03l0.01-0.68l-1-0.03c-0.15,0-0.32-0.02-0.52-0.04L22.65,224.73z M24.49,227.39
		l0.02-0.68l-0.26-0.01c-0.23,0-0.53-0.01-0.74-0.02c-0.14,0-0.31-0.02-0.49-0.04c-0.11-0.01-0.23-0.02-0.35-0.03
		c-0.09-0.01-0.17-0.01-0.25-0.01l0.01,0.68c0.05,0,0.1,0,0.17,0.01c0.12,0.01,0.24,0.02,0.35,0.04c0.21,0.02,0.39,0.04,0.55,0.05
		c0.21,0,0.51,0.01,0.74,0.02L24.49,227.39z M22.66,228.5c-0.09-0.01-0.17-0.01-0.25-0.01l0.02,0.68c0.05,0,0.1,0,0.16,0.01
		c0.12,0.01,0.24,0.02,0.34,0.03c0.21,0.02,0.4,0.04,0.56,0.05l0.28,0.01c0.29,0.01,0.61,0.01,0.72,0.02l0.01-0.68
		c-0.11,0-0.43-0.01-0.72-0.02l-0.28-0.01c-0.15,0-0.31-0.02-0.5-0.04C22.9,228.52,22.78,228.51,22.66,228.5 M20.96,207.13
		c0.18-0.21,0.25-0.5,0.22-0.85l-0.15-1.85l-0.74,0.06l0.14,1.68c0.05,0.59-0.19,0.69-0.4,0.71c-0.02,0-0.04,0-0.05,0
		c-0.17,0-0.41-0.07-0.46-0.64l-0.14-1.68l-0.74,0.06l0.15,1.85c0.06,0.68,0.44,1.04,1.11,1.04c0.06,0,0.12,0,0.18-0.01
		C20.48,207.48,20.77,207.35,20.96,207.13 M15.24,208.62l1.69-0.61l-0.22-0.6l-0.98,0.36l-0.79-2.17l-0.7,0.25L15.24,208.62z
		 M14.46,208.95l-0.32-0.56l-0.91,0.51l-1.13-2.01l-0.65,0.37l1.44,2.56L14.46,208.95z M10.44,210.15l0.75-0.61l-0.4-0.49
		l-0.75,0.61l-0.3-0.37l0.82-0.66l-0.4-0.49l-1.39,1.14l1.86,2.28l1.4-1.14l-0.4-0.49l-0.82,0.67L10.44,210.15z M9.83,212.28
		l-2.26-1.88l-0.46,0.56l1.33,1.11l-1.89-0.44l-0.53,0.64l2.26,1.88l0.46-0.56l-1.33-1.11l1.89,0.43L9.83,212.28z M5.89,214
		c-0.15-0.08-0.29-0.12-0.42-0.12c-0.48,0-0.73,0.48-0.95,0.9l-0.34,0.64l2.6,1.38l0.35-0.66l-1-0.54l0.03-0.06
		c0.1-0.18,0.17-0.16,0.32-0.14l0.98,0.12l0.39-0.73l-1.3-0.14c-0.09-0.01-0.18,0-0.25,0.01C6.3,214.4,6.15,214.14,5.89,214
		 M5.7,214.84c0.04,0.12-0.04,0.29-0.11,0.41l-0.04,0.07l-0.47-0.25L5.12,215c0.12-0.22,0.25-0.4,0.45-0.29
		C5.64,214.74,5.68,214.79,5.7,214.84 M4.44,217.15c-0.65,0-1.13,0.38-1.32,1.03c-0.24,0.85,0.17,1.53,1.06,1.79
		c0.19,0.05,0.37,0.08,0.55,0.08c0.65,0,1.12-0.38,1.31-1.04c0.11-0.39,0.08-0.76-0.09-1.07c-0.19-0.34-0.53-0.58-0.99-0.71
		C4.79,217.18,4.61,217.15,4.44,217.15 M4.4,217.91c0.11,0,0.24,0.02,0.36,0.05c0.3,0.09,0.53,0.24,0.63,0.43
		c0.08,0.13,0.09,0.28,0.04,0.45c-0.11,0.37-0.41,0.45-0.65,0.45c-0.12,0-0.25-0.02-0.39-0.06c-0.39-0.11-0.79-0.4-0.66-0.87
		C3.84,217.99,4.15,217.91,4.4,217.91 M3.37,221.02l-0.69-0.1l-0.03,0.07c-0.09,0.19-0.15,0.43-0.16,0.64
		c-0.06,0.99,0.49,1.62,1.46,1.68c0.04,0,0.09,0,0.13,0c0.85,0,1.37-0.54,1.44-1.49c0.01-0.19,0-0.39-0.05-0.65l-0.02-0.08
		l-0.7-0.01l0.07,0.14c0.05,0.11,0.08,0.35,0.07,0.55c-0.03,0.49-0.4,0.79-0.92,0.76c-0.53-0.03-0.87-0.38-0.84-0.86
		c0.01-0.16,0.04-0.33,0.17-0.52L3.37,221.02z M5.86,226.71l-2.83,0.82l0.21,0.72l1.15-0.33l0.26,0.89l0.61-0.18L5,227.73l0.45-0.13
		l0.27,0.93l0.61-0.18L5.86,226.71z M4.33,230.39c-0.12,0.34-0.08,0.71,0.11,1.09c0.26,0.53,0.69,0.82,1.22,0.82
		c0.25,0,0.52-0.07,0.78-0.2c0.42-0.21,0.7-0.5,0.83-0.87c0.12-0.34,0.08-0.72-0.11-1.09c-0.26-0.53-0.69-0.82-1.21-0.82
		c-0.25,0-0.51,0.06-0.78,0.2C4.75,229.73,4.45,230.03,4.33,230.39 M4.97,230.75c0.07-0.2,0.27-0.4,0.55-0.53
		c0.17-0.08,0.35-0.13,0.51-0.13c0.26,0,0.45,0.11,0.56,0.34c0.08,0.15,0.09,0.31,0.04,0.46c-0.07,0.2-0.26,0.4-0.53,0.53
		c-0.19,0.09-0.37,0.14-0.54,0.14c-0.26,0-0.44-0.12-0.55-0.35C4.93,231.05,4.92,230.89,4.97,230.75 M6.8,233.35
		c-0.3,0.24-0.46,0.51-0.48,0.8c-0.01,0.27,0.1,0.56,0.34,0.86c0.29,0.36,0.59,0.54,0.91,0.54c0.24,0,0.48-0.1,0.73-0.29l1.45-1.15
		l-0.47-0.59l-1.32,1.05c-0.35,0.28-0.61,0.31-0.81,0.05c-0.08-0.11-0.12-0.21-0.11-0.31c0.02-0.15,0.13-0.3,0.34-0.47l1.32-1.05
		l-0.47-0.59L6.8,233.35z M10.47,234.82l-1.86,2.28l0.56,0.46l1.1-1.34l-0.41,1.91l0.64,0.53l1.86-2.28l-0.56-0.46l-1.1,1.34
		l0.42-1.9L10.47,234.82z M13.21,236.92l-1.32,2.63l0.76,0.38c0.36,0.18,0.68,0.27,0.97,0.27c0.51,0,0.91-0.28,1.19-0.83
		c0.44-0.87,0.16-1.57-0.84-2.07L13.21,236.92z M12.85,239.32l0.75-1.49l0.18,0.09c0.19,0.1,0.33,0.26,0.4,0.46
		c0.06,0.21,0.04,0.43-0.06,0.64c-0.15,0.31-0.42,0.48-0.72,0.48c-0.13,0-0.25-0.03-0.36-0.09L12.85,239.32z M16.35,238.34
		l-0.76,2.84l1.76,0.47l0.16-0.61l-1.04-0.28l0.15-0.54l0.94,0.25l0.17-0.61l-0.94-0.25l0.12-0.46l1.03,0.27l0.17-0.61L16.35,238.34
		z M19.08,238.98l-0.16,2.94l0.84,0.05c0.07,0,0.13,0,0.19,0c0.99,0,1.51-0.46,1.57-1.38c0.02-0.45-0.08-0.81-0.31-1.07
		c-0.26-0.3-0.68-0.46-1.28-0.49L19.08,238.98z M19.7,241.33l0.1-1.67l0.2,0.01c0.4,0.02,0.78,0.33,0.75,0.88
		c-0.03,0.57-0.46,0.81-0.84,0.79L19.7,241.33z M24.11,238.81l-0.5,3.11l0.77-0.17l0.1-0.66l0.95-0.21l0.36,0.57l0.81-0.18
		l-1.74-2.63L24.11,238.81z M24.58,240.43l0.09-0.77l0.4,0.66L24.58,240.43z M27.61,240.07l-0.7,0.26l0.25,0.71l0.71-0.25
		L27.61,240.07z M27.59,237.76l1.4,2.59l0.74-0.4c0.98-0.53,1.24-1.23,0.78-2.09c-0.46-0.85-1.2-1.03-2.18-0.5L27.59,237.76z
		 M28.56,237.96l0.18-0.1c0.12-0.07,0.25-0.1,0.38-0.1c0.3,0,0.56,0.17,0.71,0.45c0.26,0.48,0.04,0.93-0.3,1.11l-0.18,0.1
		L28.56,237.96z M31.7,237.85l-0.62,0.43l0.43,0.62l0.62-0.43L31.7,237.85z M32.12,235.67l0.64,0.09l0.05-0.48l1.41,1.42l0.53-0.53
		l-2.07-2.1l-0.44,0.44L32.12,235.67z M34.68,233.94c-0.02,0.32,0.09,0.56,0.31,0.73c0.17,0.12,0.34,0.18,0.51,0.18
		c0.29,0,0.59-0.18,0.84-0.51c0.2-0.28,0.29-0.56,0.26-0.81c-0.03-0.22-0.16-0.4-0.36-0.56c-0.25-0.18-0.52-0.21-0.83-0.09
		c0-0.29-0.15-0.54-0.32-0.67c-0.37-0.27-0.86-0.12-1.22,0.37c-0.35,0.48-0.32,0.97,0.09,1.27C34.16,234,34.42,234.04,34.68,233.94
		 M35.31,233.66c0.21-0.14,0.37-0.16,0.5-0.06c0.06,0.05,0.1,0.1,0.11,0.17c0.01,0.07-0.01,0.15-0.07,0.22
		c-0.1,0.14-0.29,0.17-0.41,0.08C35.32,233.98,35.28,233.86,35.31,233.66 M34.84,233.19c-0.1,0.07-0.21,0.12-0.31,0.12
		c-0.05,0-0.09-0.01-0.12-0.04c-0.15-0.11-0.07-0.29-0.01-0.37c0.05-0.07,0.11-0.1,0.18-0.1c0.05,0,0.1,0.02,0.16,0.06
		C34.82,232.92,34.86,233.08,34.84,233.19 M36.4,231.79c0.33,0.17,0.61,0.25,0.85,0.25c0.37,0,0.65-0.18,0.84-0.55
		c0.29-0.57,0.09-1.08-0.52-1.39c-0.51-0.25-0.99-0.1-1.24,0.39c-0.07,0.14-0.1,0.27-0.08,0.4c-0.18-0.15-0.35-0.38-0.2-0.67
		c0.07-0.15,0.17-0.24,0.28-0.35l0.1-0.09l-0.54-0.39l-0.06,0.06c-0.15,0.15-0.27,0.31-0.36,0.5c-0.15,0.29-0.17,0.58-0.08,0.85
		C35.54,231.28,36.03,231.61,36.4,231.79 M36.81,231.04c-0.02-0.05-0.01-0.11,0.02-0.17c0.04-0.09,0.12-0.13,0.22-0.13
		c0.08,0,0.17,0.02,0.27,0.07c0.12,0.06,0.22,0.15,0.25,0.24c0.02,0.05,0.01,0.11-0.01,0.16c-0.05,0.1-0.12,0.14-0.23,0.14
		c-0.07,0-0.15-0.02-0.24-0.07C36.93,231.22,36.83,231.13,36.81,231.04 M38.37,228.88L38.27,229l0.69,0.23l0.04-0.07
		c0.11-0.2,0.21-0.43,0.26-0.61c0.1-0.35,0.09-0.66-0.04-0.92c-0.12-0.24-0.34-0.41-0.62-0.49c-0.59-0.18-1.06,0.09-1.23,0.65
		c-0.02,0.05-0.03,0.1-0.04,0.14L37,227.82l0.3-1.01l-0.59-0.17l-0.5,1.7l1.63,0.52v-0.14c0-0.16,0.02-0.31,0.06-0.46
		c0.04-0.14,0.19-0.49,0.51-0.4c0.33,0.1,0.26,0.46,0.23,0.57C38.58,228.62,38.46,228.77,38.37,228.88"/>
</g>
</svg>
